<?xml version="1.0" encoding="utf-8"?>
<svg
	version="1.1"
	xmlns="http://www.w3.org/2000/svg"
	xmlns:xlink="http://www.w3.org/1999/xlink"
	x="0%" y="0%"
	width="100%" height="100%"
	viewBox="0 0 24.0 24.0"
	enable-background="new 0 0 24.0 24.0"
	xml:space="preserve">
	<path
		fill="#FFFFFF"
		stroke="#FDFDFD"
		fill-opacity="1.000"
		stroke-opacity="1.000"
		fill-rule="nonzero"
		stroke-width="0.81600004"
		stroke-linejoin="round"
		stroke-linecap="square"
		d="M6.72,7.20L18.67,7.20L18.67,16.32L6.72,16.32zM6.72,16.32L18.67,16.32L18.67,7.20L6.72,7.20z"/>
	<path
		fill="#FFFFFF"
		stroke="#FFFFFF"
		fill-opacity="1.000"
		stroke-opacity="1.000"
		fill-rule="nonzero"
		stroke-width="0.40800002"
		stroke-linejoin="miter"
		stroke-linecap="square"
		d="M7.91,10.80L7.91,8.40L10.33,8.40L10.33,8.88L8.88,9.36L8.32,10.80L7.91,10.80zM7.91,10.80L8.32,10.80L8.88,9.36L10.33,8.88L10.33,8.40L7.91,8.40L7.91,10.80z"/>
	<path
		fill="#FFFFFF"
		stroke="#FFFFFF"
		fill-opacity="1.000"
		stroke-opacity="1.000"
		fill-rule="nonzero"
		stroke-width="0.40800002"
		stroke-linejoin="miter"
		stroke-linecap="square"
		d="M7.92,12.70L7.92,15.14L10.32,15.14L10.32,14.67L8.88,14.15L8.40,12.70L7.92,12.70zM7.92,12.70L8.40,12.70L8.88,14.15L10.32,14.67L10.32,15.14L7.92,15.14L7.92,12.70z"/>
	<path
		fill="#FFFFFF"
		stroke="#FFFFFF"
		fill-opacity="1.000"
		stroke-opacity="1.000"
		fill-rule="nonzero"
		stroke-width="0.40800002"
		stroke-linejoin="miter"
		stroke-linecap="square"
		d="M17.52,10.80L17.52,8.40L15.12,8.40L15.12,8.88L16.56,9.36L17.04,10.80L17.52,10.80zM17.52,10.80L17.04,10.80L16.56,9.36L15.12,8.88L15.12,8.40L17.52,8.40L17.52,10.80z"/>
	<path
		fill="#FFFFFF"
		stroke="#FFFFFF"
		fill-opacity="1.000"
		stroke-opacity="1.000"
		fill-rule="nonzero"
		stroke-width="0.40800002"
		stroke-linejoin="miter"
		stroke-linecap="square"
		d="M17.52,12.70L17.52,15.11L15.12,15.11L15.12,14.64L16.56,14.15L17.04,12.70L17.52,12.70zM17.52,12.70L17.04,12.70L16.56,14.15L15.12,14.64L15.12,15.11L17.52,15.11L17.52,12.70z"/>
</svg>